<?xml version="1.0" standalone="no"?>
<!DOCTYPE svg PUBLIC "-//W3C//DTD SVG 20010904//EN"
 "http://www.w3.org/TR/2001/REC-SVG-20010904/DTD/svg10.dtd">
<svg version="1.0" xmlns="http://www.w3.org/2000/svg"
 width="512.000000pt" height="512.000000pt" viewBox="0 0 512.000000 512.000000"
 preserveAspectRatio="xMidYMid meet">
<metadata>
Created by potrace 1.14, written by Peter Selinger 2001-2017
</metadata>
<g transform="translate(0.000000,512.000000) scale(0.100000,-0.100000)"
fill="#000000" stroke="none">
<path d="M4319 5103 c-108 -42 -189 -121 -189 -185 0 -38 37 -74 91 -88 55
-15 252 -7 326 13 131 35 167 112 89 191 -75 74 -220 106 -317 69z"/>
<path d="M2629 4726 c-44 -16 -107 -53 -134 -81 -116 -115 -210 -288 -230
-425 -4 -25 -8 -47 -10 -49 -2 -1 -37 3 -77 9 -161 28 -407 17 -583 -26 -184
-46 -355 -119 -553 -239 -206 -124 -452 -364 -600 -585 -142 -214 -264 -499
-308 -720 -3 -14 -9 -44 -15 -67 -36 -165 -51 -418 -36 -618 13 -175 66 -427
117 -550 4 -11 22 -56 40 -100 43 -107 119 -251 193 -360 33 -49 63 -92 66
-95 3 -3 32 -36 63 -75 300 -371 805 -624 1423 -710 176 -25 248 -30 465 -30
257 0 358 9 590 52 224 41 508 139 725 251 94 48 304 186 401 264 119 95 301
281 391 399 246 323 391 694 420 1069 10 126 2 406 -12 430 -1 3 -6 28 -9 55
-21 161 -110 417 -202 580 -172 304 -384 502 -712 665 l-133 67 73 21 c167 49
372 60 546 28 46 -8 92 -13 102 -11 71 14 108 86 81 157 -14 37 -99 114 -162
148 -109 58 -164 72 -289 76 -190 5 -319 -30 -600 -163 -115 -54 -276 -120
-316 -128 -18 -3 -11 1 17 13 131 54 232 171 243 281 9 92 -38 236 -96 294
-97 98 -227 77 -422 -67 -112 -82 -176 -161 -291 -356 -57 -97 -54 -95 -81
-58 -65 87 -35 206 111 435 49 76 55 93 51 125 -7 49 -24 75 -62 93 -39 18
-136 19 -185 1z"/>
<path d="M325 4523 c-77 -17 -171 -79 -214 -143 -104 -153 -90 -364 24 -371
59 -4 131 36 214 120 193 194 234 328 119 387 -26 13 -99 17 -143 7z"/>
<path d="M4789 3769 c-30 -30 -21 -98 25 -188 51 -102 95 -157 144 -182 40
-20 44 -20 68 -4 81 53 68 227 -26 322 -67 68 -169 94 -211 52z"/>
</g>
</svg>
